<svg width="6" height="30" viewBox="0 0 6 30" fill="none" xmlns="http://www.w3.org/2000/svg">
<path d="M3 4.5C2.60218 4.5 2.22065 4.34196 1.93934 4.06066C1.65804 3.77936 1.5 3.39782 1.5 3C1.5 2.60218 1.65804 2.22064 1.93934 1.93934C2.22065 1.65804 2.60218 1.5 3 1.5C3.39782 1.5 3.77935 1.65804 4.06066 1.93934C4.34196 2.22064 4.5 2.60218 4.5 3C4.5 3.39782 4.34196 3.77936 4.06066 4.06066C3.77935 4.34196 3.39782 4.5 3 4.5ZM3 16.5C2.60218 16.5 2.22065 16.342 1.93934 16.0607C1.65804 15.7794 1.5 15.3978 1.5 15C1.5 14.6022 1.65804 14.2206 1.93934 13.9393C2.22065 13.658 2.60218 13.5 3 13.5C3.39782 13.5 3.77935 13.658 4.06066 13.9393C4.34196 14.2206 4.5 14.6022 4.5 15C4.5 15.3978 4.34196 15.7794 4.06066 16.0607C3.77935 16.342 3.39782 16.5 3 16.5ZM3 28.5C2.60218 28.5 2.22065 28.342 1.93934 28.0607C1.65804 27.7794 1.5 27.3978 1.5 27C1.5 26.6022 1.65804 26.2206 1.93934 25.9393C2.22065 25.658 2.60218 25.5 3 25.5C3.39782 25.5 3.77935 25.658 4.06066 25.9393C4.34196 26.2206 4.5 26.6022 4.5 27C4.5 27.3978 4.34196 27.7794 4.06066 28.0607C3.77935 28.342 3.39782 28.5 3 28.5Z" stroke="#1C1C1C" stroke-width="2" stroke-linecap="round" stroke-linejoin="round"/>
</svg>
