<svg width="18" height="18" viewBox="0 0 18 18" fill="none" xmlns="http://www.w3.org/2000/svg">
<path d="M13.7813 9.55426L8.01152 15.324C7.37858 15.9569 6.52013 16.3125 5.62502 16.3125C4.72991 16.3125 3.87146 15.9569 3.23852 15.324C2.60558 14.6911 2.25 13.8326 2.25 12.9375C2.25 12.0424 2.60558 11.1839 3.23852 10.551L11.4435 2.34601C11.6525 2.13711 11.9006 1.97142 12.1737 1.8584C12.4467 1.74538 12.7393 1.68725 13.0348 1.68732C13.3303 1.68739 13.6229 1.74566 13.8959 1.85881C14.1689 1.97195 14.4169 2.13776 14.6258 2.34676C14.8347 2.55576 15.0004 2.80385 15.1134 3.07689C15.2264 3.34992 15.2845 3.64254 15.2845 3.93804C15.2844 4.23354 15.2261 4.52613 15.113 4.79911C14.9998 5.07209 14.834 5.32011 14.625 5.52901L6.41402 13.74C6.20101 13.9442 5.91629 14.0558 5.62123 14.0521C5.32617 14.0483 5.04439 13.9288 4.83662 13.7193C4.62885 13.5097 4.51173 13.2269 4.51049 12.9319C4.50926 12.6368 4.62401 12.353 4.83002 12.1418L10.6875 6.28426M6.42077 13.7325L6.41327 13.74" stroke="#474747" stroke-width="1.5" stroke-linecap="round" stroke-linejoin="round"/>
</svg>
